<?xml version="1.0" encoding="UTF-8"?>
<!-- Generated by Pixelmator Pro 3.6.5 -->
<svg width="1024" height="454" viewBox="0 0 1024 454" xmlns="http://www.w3.org/2000/svg">
    <path id="Path" fill="#0d2336" stroke="none" d="M 0 -290 L 1024 -290 L 1024 734 L 0 734 L 0 -290 Z"/>
    <path id="path1" fill="#4da0d9" stroke="none" d="M 509.790009 122.215515 C 550.900024 120.802979 585.539978 145.644531 615.325012 170.898987 C 621.289978 166.557007 626.840027 161.516479 632.650024 156.955994 C 648.599976 144.444458 666.304993 133.653015 685.809998 127.797974 C 719.64502 117.641479 748.890015 123.644531 779.390015 140.057007 C 776.820007 143.068481 773.969971 145.864502 771.210022 148.706543 C 758.659973 139.880981 740.169983 134.671997 724.984985 133.570007 C 683.86499 130.584961 651.86499 154.005493 622.369995 179.286987 C 628.88501 183.198975 635.090027 187.865967 641.440002 192.068481 C 667.469971 209.2995 686.304993 218.200012 717.85498 221.88501 C 713.51001 224.984985 709.455017 228.690002 705.36499 232.130005 C 672.159973 226.344971 641.294983 206.968994 615.825012 185.749512 C 590.405029 208.337036 554.119995 229.01001 519.900024 231.719971 C 478.553986 234.994995 441.085999 211.290039 410.92099 185.556519 C 386.698486 205.778992 360.349487 224.289978 328.669006 230.205017 C 289.984009 237.424988 255.757507 223.924988 224.391495 202.408508 C 217.626495 197.494507 211.026505 192.356506 204.602997 187.004028 C 198.402496 192.559998 192.128998 198.009033 185.4375 202.971985 C 156.239502 224.630005 121.985001 235.465027 85.627998 230 C 68.711998 227.460022 53.5345 221.349976 38.954102 212.545044 C 36.3974 211 32.00185 208.724976 30.4471 206.094971 C 29.78455 204.973999 29.385799 203.62146 29.793449 202.327026 C 30.507351 200.060486 33.1684 198.904541 35.096649 197.831543 C 40.420448 200.794006 45.394749 204.372498 50.721001 207.353516 C 63.647999 214.589966 78.563004 219.130005 93.262001 220.815002 C 135.813004 225.690002 166.602997 205.041992 197.884506 179.989014 C 189.908997 172.113525 181.220993 164.99353 171.931503 158.720459 C 137.119995 135.136963 98.253502 125.838989 58.560501 143.454956 C 54.097 145.436035 36.016998 156.864502 33.968102 157.255981 C 32.793098 156.971008 31.95705 156.510498 31.013451 155.77301 C 29.790449 154.817505 28.82605 153.557983 28.81675 151.928955 C 28.807301 150.27002 29.832701 148.784485 30.9361 147.640991 C 33.900101 144.568481 38.081749 142.380005 41.7551 140.254028 C 58.706001 130.442017 76.624001 124.350464 96.348999 123.573486 C 137.651993 121.946045 175.623505 145.208984 204.986496 172.166504 C 232.074997 149.476501 259.536499 128.80603 295.679993 123.687988 C 327.687988 119.155518 360.35849 133.141479 386.08551 151.333984 C 394.4245 157.230469 402.027496 164.164001 410.169495 170.333496 C 417.793488 164.80896 424.932495 158.617493 432.527496 153.046021 C 455.260986 136.370483 481.297485 123.838013 509.790009 122.215515 Z"/>
    <path id="path2" fill="#0d2336" stroke="none" d="M 300.987 133.701538 C 301.144501 133.68103 301.301514 133.656006 301.459503 133.640503 C 310.377014 132.745972 319.936493 133.907471 328.617493 135.921021 C 357.893005 142.712524 381.074493 159.95752 403.59201 178.889526 C 374.340515 201.357544 353.467987 216.11499 315.603485 221.424988 C 275.375488 223.594971 242.275497 204.295044 212.092499 179.928955 C 236.647003 157.557495 267.189514 137.057983 300.987 133.701538 Z"/>
    <path id="path3" fill="#8ee674" stroke="none" d="M 304.584503 145.505981 C 305.726501 145.41748 306.874512 145.43103 308.014496 145.546997 C 310.037506 145.759033 312.257507 146.551025 313.501495 148.247009 C 313.686493 148.499023 314.186005 149.270508 314.265015 149.474976 C 315.064514 151.538513 314.661987 200.287964 314.157013 203.944458 C 313.019989 205.47699 311.685486 206.182495 310.047485 207.118042 C 308.89801 207.362 307.951508 207.420044 306.77301 207.311523 C 304.750488 207.124512 302.088501 206.464966 300.971985 204.540039 C 299.946991 202.773499 300.05249 155.486511 300.653015 150.729492 C 300.985504 148.096985 302.622498 146.992493 304.584503 145.505981 Z"/>
    <path id="path4" fill="#8ee674" stroke="none" d="M 271.855988 180.104492 C 276.472504 179.828979 280.985504 179.894531 285.602509 180.096008 C 285.610992 184.782959 286.473511 201.947021 284.936005 205.057983 L 283.976013 205.312012 L 270.827515 204.879517 C 270.763489 200.75 269.63501 182.681519 271.855988 180.104492 Z"/>
    <path id="path5" fill="#8ee674" stroke="none" d="M 330.421997 179.424011 C 335.278015 179.247009 340.122498 179.33252 344.979004 179.406494 C 345.160492 187.668457 345.015503 195.960999 345.015991 204.226501 C 340.167511 204.593994 335.235992 204.446533 330.373505 204.469971 L 330.421997 179.424011 Z"/>
    <path id="path6" fill="#4da0d9" stroke="none" d="M 361.807495 167.213989 C 365.14801 167.108521 368.304504 167.150513 371.622009 167.567505 C 371.652008 174.271484 373.227997 188.266968 370.968506 193.9245 C 369.062012 194.696045 367.053009 195.222534 364.979004 195.223511 C 363.739014 195.223999 363.074005 195.029541 362.194 194.186523 C 360.731995 186.049011 361.757996 175.536011 361.807495 167.213989 Z"/>
    <path id="path7" fill="#4da0d9" stroke="none" d="M 243.539001 168.58252 L 253.459503 168.467529 C 253.494507 177.280029 254.074493 186.461487 253.296005 195.231995 C 250.053497 195.380493 246.7995 195.109009 243.561493 194.934998 C 243.416 186.151489 243.408493 177.365967 243.539001 168.58252 Z"/>
    <path id="path8" fill="#4da0d9" stroke="none" d="M 330.914001 156.929504 L 344.99649 157.011475 L 344.992493 163.565491 L 330.909485 163.907471 L 330.914001 156.929504 Z"/>
    <path id="path9" fill="#4da0d9" stroke="none" d="M 271.328003 157.382507 L 285.316498 157.379028 L 285.167511 164.08551 L 271.343994 164.200989 C 271.219513 161.940491 271.312988 159.646973 271.328003 157.382507 Z"/>
    <path id="path10" fill="#0d2336" stroke="none" d="M 512.330017 133.238525 C 540.044983 132.380005 566.77002 145.943481 588.359985 162.315491 C 595.094971 167.421997 601.349976 173.30896 608.275024 178.133545 L 608.809998 178.499023 C 583.015015 199.94397 549.02002 220.695007 514.565002 221.015015 C 474.570007 221.415039 448.194 200.622498 417.453003 178.922485 L 417.936493 178.403992 C 431.903503 163.671021 461.493988 144.98999 480.495514 138.644043 C 490.862 135.182007 501.440002 133.593506 512.330017 133.238525 Z"/>
    <path id="path11" fill="#8ee674" stroke="none" d="M 509.089996 145.510498 C 513.159973 145.203979 515.63501 146.429504 518.960022 148.554993 C 519.169983 156.256958 520.090027 200.362 518.640015 204.239014 C 517.984985 205.993042 515.705017 206.860962 514.130005 207.588501 C 510.934998 207.617493 507.899994 207.570496 505.320007 205.49646 C 503.640015 202.950012 503.665009 156.634521 504.519989 150.572021 C 504.869995 148.096985 507.214996 146.781982 509.089996 145.510498 Z"/>
    <path id="path12" fill="#8ee674" stroke="none" d="M 533.13501 178.067017 C 538.190002 178.028992 543.25 178.070007 548.304993 178.19104 C 548.359985 186.613037 548.294983 195.035034 548.109985 203.454956 C 543.36499 204.410522 538.005005 203.973511 533.169983 203.938477 C 532.775024 195.372986 533.125 186.650024 533.13501 178.067017 Z"/>
    <path id="path13" fill="#8ee674" stroke="none" d="M 475.08551 178.165039 C 480.045013 178.125488 484.973511 178.066528 489.924011 178.447021 C 489.938507 187.045532 490.22049 195.83252 489.523499 204.400024 L 475.118011 204.269043 C 475.006989 195.567993 474.996002 186.865967 475.08551 178.165039 Z"/>
    <path id="path14" fill="#4da0d9" stroke="none" d="M 566.390015 166.22699 C 569.059998 166.194458 571.734985 166.353027 574.405029 166.45752 C 574.315002 174.700012 575.434998 183.946533 574.244995 192.054504 C 574.02002 193.574463 573.710022 193.985474 572.484985 194.854492 C 570.690002 194.976013 568.255005 195.155029 566.494995 194.737 C 565.625 194.528992 565.184998 194.485962 564.844971 193.553467 C 564.219971 191.833008 564.294983 168.474976 565.075012 166.63501 L 566.390015 166.22699 Z"/>
    <path id="path15" fill="#4da0d9" stroke="none" d="M 448.46051 166.369019 C 451.602997 166.317017 454.757996 166.403992 457.901001 166.4375 C 457.819489 175.748535 458.38501 185.194458 457.77301 194.480469 C 454.778503 194.856506 451.868011 195.341003 448.991486 194.168457 C 447.165985 191.424988 448.302002 171.213501 448.46051 166.369019 Z"/>
    <path id="path16" fill="#4da0d9" stroke="none" d="M 535.025024 155.186523 L 547.664978 155.41748 C 547.77002 157.861511 547.789978 160.312988 547.840027 162.759521 C 543.594971 163.143005 539.23999 163.009521 534.97998 163.061523 L 535.025024 155.186523 Z"/>
    <path id="path17" fill="#4da0d9" stroke="none" d="M 475.519501 155.497498 L 487.931 155.507996 L 488.03949 163.075989 L 475.523499 163.124512 L 475.519501 155.497498 Z"/>
    <path id="path18" fill="#8ee674" stroke="none" d="M 929.609985 43.660034 C 940.169983 42.263 950.450012 44.958008 959.190002 50.962036 C 968.159973 57.079956 974.280029 66.560486 976.159973 77.25354 C 978.125 88.646484 975.799988 100.109985 969.025024 109.510986 C 962.429993 118.662476 953.320007 124.704468 942.119995 126.489014 C 929.289978 128.532959 918.900024 124.749512 908.669983 117.264526 C 894.875 128.601013 880.200012 139.186523 865.974976 149.999512 C 880.590027 161.063965 895.025024 172.438965 910.044983 182.945496 C 912.505005 181.268005 915.099976 179.784485 917.789978 178.508545 C 927.679993 173.900024 938.369995 173.059509 948.679993 176.839966 C 959.330017 180.745972 968.224976 188.55249 972.880005 198.948975 C 977.35498 208.939514 977.960022 220.89502 973.969971 231.150024 C 969.98999 241.375 962.315002 249.969971 952.174988 254.320007 C 941.155029 259.044983 928.155029 258.859985 917.109985 254.289978 C 907.705017 250.400024 900.049988 241.984985 896.280029 232.61499 C 891.559998 220.880005 892.590027 209.259033 897.375 197.794006 C 888.965027 190.80603 879.554993 184.678955 870.73999 178.192993 C 863.88501 173.150024 857.325012 167.485474 850.22998 162.80896 C 839.565002 169.609009 827.35498 179.799988 816.849976 187.603027 C 792.049988 206.030029 767.085022 224.065002 740.169983 239.335022 C 725.044983 247.97998 709.565002 254.434998 693.315002 260.585022 C 708.784973 246.200012 725.585022 233.455017 741.659973 219.795044 L 821.320007 150.757507 C 809.244995 140.715515 797.72998 129.944458 785.799988 119.719971 C 772.97998 108.734009 759.75 98.29248 747.119995 87.071533 C 731.934998 73.580505 717.130005 59.227539 701.409973 46.392456 C 727.669983 52.444458 763.174988 72.604492 785.26001 87.908508 C 797.840027 96.627014 809.900024 106.389526 822.090027 115.655029 C 831.14502 122.535522 840.405029 129.138 849.429993 136.062988 L 896.289978 101.247498 C 895.445007 98.932983 894.849976 96.703491 894.474976 94.266479 C 892.655029 82.443481 894.539978 69.838501 901.775024 60.068481 C 908.655029 50.778503 918.27002 45.393005 929.609985 43.660034 Z"/>
    <path id="path19" fill="#0d2336" stroke="none" d="M 932.965027 57.663513 C 948.080017 56.359009 961.424988 67.478516 962.86499 82.580505 C 964.304993 97.682495 953.304993 111.124023 938.219971 112.702026 C 922.934998 114.2995 909.284973 103.12854 907.825012 87.83252 C 906.36499 72.536011 917.659973 58.984497 932.965027 57.663513 Z"/>
    <path id="path20" fill="#0d2336" stroke="none" d="M 930.344971 189.277466 C 940.015015 187.666016 949.804993 191.37146 955.97998 198.980957 C 962.159973 206.591003 963.775024 216.934998 960.215027 226.065002 C 956.650024 235.195007 948.460022 241.710022 938.76001 243.125 C 923.969971 245.284973 910.205017 235.130005 907.900024 220.36499 C 905.590027 205.602539 915.60498 191.733521 930.344971 189.277466 Z"/>
    <path id="path21" fill="#0d2336" stroke="none" d="M 834.5 141.061035 C 835.869995 140.938477 837.349976 140.72699 838.710022 140.973511 C 841 141.388489 843.174988 142.863525 844.484985 144.770996 C 845.804993 146.685486 846.159973 149.109009 845.609985 151.349487 C 844.844971 154.505493 842.765015 156.17749 840.085022 157.75647 C 839.219971 157.754028 838.349976 157.747498 837.48999 157.642456 C 834.619995 157.290039 831.72998 155.88501 830.025024 153.48999 C 828.880005 151.88147 828.48999 149.86499 828.849976 147.934509 C 829.469971 144.612 831.840027 142.820007 834.5 141.061035 Z"/>
    <path id="path22" fill="#ffffff" stroke="none" d="M 809.335022 276.585022 C 844.044983 272.840027 875.219971 297.950012 878.955017 332.659973 C 882.684998 367.375 857.570007 398.539978 822.859985 402.265015 C 788.159973 405.98999 757.005005 380.88501 753.27002 346.184998 C 749.539978 311.484985 774.63501 280.325012 809.335022 276.585022 Z"/>
    <path id="path23" fill="#0d2336" stroke="none" d="M 812.424988 301.294983 C 833.414978 299.344971 852.030029 314.755005 854.034973 335.744995 C 856.039978 356.72998 840.684998 375.38501 819.700012 377.450012 C 798.63501 379.525024 779.890015 364.094971 777.880005 343.02002 C 775.86499 321.950012 791.344971 303.25 812.424988 301.294983 Z"/>
    <path id="path24" fill="#1eb100" stroke="none" d="M 386.902496 279.73999 L 397.050995 279.674988 C 425.53949 279.515015 457.602509 275.549988 479.679993 297.64502 C 491.042511 309.015015 495.983002 324.599976 495.853485 340.440002 C 495.717987 357.054993 489.941498 371.015015 478.124512 382.640015 C 459.745514 399.179993 441.302002 399.700012 417.897491 399.60498 L 386.468994 399.525024 L 386.576996 315.299988 C 386.571014 307.835022 385.558014 284.780029 386.902496 279.73999 Z"/>
    <path id="path25" fill="#0d2336" stroke="none" d="M 411.46051 302.609985 C 427.553986 302.390015 446.455505 300.61499 459.263 312.440002 C 466.62851 319.234985 469.656494 328.554993 469.921509 338.38501 C 470.228485 349.789978 467.489502 358.455017 459.563507 366.724976 C 446.242493 378.734985 428.040985 376.544983 411.397003 376.525024 L 411.46051 302.609985 Z"/>
    <path id="path26" fill="#1eb100" stroke="none" d="M 33.151249 279.544983 L 64.060501 279.429993 C 76.611504 279.39502 91.657997 277.664978 103.524498 282.359985 C 113.121002 286.159973 121.777496 293.609985 125.892998 303.200012 C 129.947006 312.64502 129.786499 324.97998 125.871002 334.440002 C 121.363998 345.325012 112.758003 351.094971 102.232498 355.440002 C 112.781998 369.570007 122.342003 384.679993 131.8255 399.544983 L 117.448502 399.799988 L 103.026497 399.934998 C 95.075996 386.215027 85.825996 373.02002 77.4935 359.494995 L 58.9035 359.515015 C 58.153999 372.75 58.683998 386.309998 58.626499 399.585022 C 50.219002 399.794983 41.807449 399.830017 33.397999 399.700012 L 33.151249 279.544983 Z"/>
    <path id="path27" fill="#0d2336" stroke="none" d="M 58.4935 302.015015 C 69.487 302.159973 90.001999 299.215027 98.166 307.304993 C 101.607498 310.715027 102.689499 315.380005 102.669502 320.080017 C 102.647499 325.289978 100.863503 328.375 97.357002 332 C 87.902 339.164978 70.000999 336.815002 58.529499 336.994995 L 58.4935 302.015015 Z"/>
    <path id="path28" fill="#ffffff" stroke="none" d="M 899.325012 279.505005 L 933.23999 279.450012 C 942.359985 279.450012 951.945007 278.799988 960.900024 280.679993 C 967.61499 282.090027 974.224976 285.005005 979.539978 289.380005 C 987.109985 295.61499 991.094971 304.155029 991.960022 313.840027 C 992.909973 324.474976 990.52002 334.38501 983.460022 342.585022 C 974.474976 353.02002 962.690002 356.13501 949.47998 357.02002 L 924.780029 357.01001 C 924.400024 371.119995 924.794983 385.344971 924.799988 399.465027 L 899.409973 399.5 C 899.23999 359.52002 898.744995 319.474976 899.325012 279.505005 Z"/>
    <path id="path29" fill="#0d2336" stroke="none" d="M 924.76001 301.599976 C 934.659973 301.61499 954.494995 299.244995 961.734985 306.244995 C 965.044983 309.450012 966.325012 314.054993 966.424988 318.554993 C 966.534973 323.554993 964.525024 326.835022 961.150024 330.244995 C 951.765015 337.224976 935.804993 334.880005 924.64502 334.724976 C 924.594971 323.679993 924.63501 312.640015 924.76001 301.599976 Z"/>
    <path id="path30" fill="#ffffff" stroke="none" d="M 709.119995 279.429993 C 717.455017 279.070007 725.934998 279.14502 734.275024 279.445007 C 734.125 290.64502 734.924988 396.655029 734.184998 398.695007 C 734.059998 399.034973 733.715027 399.244995 733.484985 399.52002 L 709.414978 399.539978 C 709.47998 382.960022 709.419983 366.380005 709.234985 349.804993 C 692.23999 350.25 675.179993 349.974976 658.179993 349.98999 L 658.125 399.525024 L 632.275024 399.544983 L 632.159973 279.655029 C 640.789978 279.465027 649.450012 279.625 658.085022 279.640015 L 658.005005 327.539978 L 709.099976 327.60498 C 709.005005 311.549988 709.015015 295.48999 709.119995 279.429993 Z"/>
    <path id="path31" fill="#1eb100" stroke="none" d="M 307.169495 279.22998 C 311.773499 279.13501 316.354004 279.23999 320.955505 279.375 C 329.665985 301.10498 339.102509 322.61499 348.348999 344.125 C 356.288513 362.594971 364.015015 381.125 372.138489 399.52002 L 346.024994 399.77002 C 342.862 390.909973 338.233002 382.390015 335.64801 373.359985 C 328.348511 373.005005 320.964996 373.265015 313.655487 373.325012 L 284.471497 373.35498 C 281.120514 382.164978 277.114014 390.734985 274.007996 399.630005 C 265.125 399.97998 256.153503 399.859985 247.263504 399.684998 C 256.09549 380.380005 264.110992 360.844971 272.52951 341.369995 C 281.425507 320.789978 290.561005 300.405029 298.66449 279.484985 L 307.169495 279.22998 Z"/>
    <path id="path32" fill="#0d2336" stroke="none" d="M 309.347504 308.849976 C 311.9935 311.465027 324.51651 346.585022 326.567993 352.049988 L 310.55899 352.085022 L 292.579498 352.205017 C 298.601501 337.89502 304.036499 323.434998 309.347504 308.849976 Z"/>
    <path id="path33" fill="#1eb100" stroke="none" d="M 152.007004 279.505005 C 180.154007 279.14502 208.348999 279.455017 236.501007 279.5 L 236.455994 302.64502 L 176.938507 302.450012 C 176.793503 311.015015 176.869507 319.594971 176.839005 328.164978 C 194.922501 327.789978 213.056503 328 231.145493 328.025024 L 231.252502 350.655029 C 214.138504 350.400024 196.992996 350.585022 179.875 350.554993 C 178.746506 350.585022 178.019501 350.380005 177.106003 351.094971 C 176.095001 359.565002 176.891006 368.905029 176.903503 377.484985 L 237.4655 377.375 L 237.477493 399.549988 L 151.908493 399.969971 L 152.007004 279.505005 Z"/>
    <path id="path34" fill="#ffffff" stroke="none" d="M 566.86499 277.719971 C 570.150024 277.51001 573.554993 277.63501 576.830017 277.974976 C 593.01001 279.664978 606.284973 286.705017 616.585022 299.325012 C 610.705017 303.994995 604.86499 308.724976 599.075012 313.505005 C 594.090027 308.13501 587.594971 304.340027 580.61499 302.164978 C 571.429993 299.304993 561.47998 300.26001 553.01001 304.820007 C 544.315002 309.515015 538.054993 317.784973 535.304993 327.219971 C 532.195007 337.890015 533.109985 351.320007 538.565002 361.11499 C 543.065002 369.315002 550.690002 375.344971 559.705017 377.830017 C 569.164978 380.359985 581.695007 379.289978 589.72998 373.25 C 592.679993 371.030029 595.309998 367.880005 598.48999 366.049988 L 599.934998 366.929993 C 605.47998 371 610.890015 375.549988 616.015015 380.13501 C 615.684998 380.63501 615.335022 381.10498 614.955017 381.570007 C 604.815002 393.914978 591.26001 400.090027 575.445007 401.465027 C 558.580017 402.929993 541.429993 398.76001 528.369995 387.674988 C 515.664978 376.88501 508.904999 362.215027 507.709991 345.72998 C 506.445007 328.36499 511.420013 311.469971 522.98999 298.280029 C 534.075012 285.640015 550.309998 278.86499 566.86499 277.719971 Z"/>
    <path id="path35" fill="#8ee674" stroke="none" d="M 710.335022 146.182495 C 712.26001 146.097534 714.215027 145.978516 716.140015 146.049988 C 718.200012 146.126465 719.60498 146.484985 721.025024 148.047974 C 722.590027 154.16449 722.429993 195.445007 721.440002 201.787476 C 721.140015 203.719482 719.655029 204.564514 718.184998 205.611511 C 717.325012 205.801025 716.505005 205.964966 715.619995 205.992004 C 713.184998 206.06604 709.789978 205.64502 708.025024 203.778503 C 707.830017 203.56897 707.27002 202.89502 707.184998 202.711487 C 706.125 200.45752 706.684998 153.408508 707.070007 147.601501 C 708.075012 146.516968 708.919983 146.531494 710.335022 146.182495 Z"/>
    <path id="path36" fill="#8ee674" stroke="none" d="M 100.623001 146.028992 C 101.7425 146.005493 102.879997 145.968506 103.998001 146.051514 C 105.928497 146.194458 107.773003 146.835999 109.016502 148.381958 C 110.985497 150.830994 111.022499 196.412964 110.101997 201.712524 C 109.708504 203.978027 107.544502 205.16748 105.772003 206.271973 C 104.546501 206.416016 103.235497 206.484009 102.003998 206.427979 C 100.063004 206.339478 98.163498 205.667969 96.935997 204.109009 C 96.109497 203.05896 96.139503 201.946533 96.028999 200.634033 C 95.190002 190.681519 95.848999 180.127502 95.879997 170.110962 C 95.899002 164.139038 95.162003 157.076538 96.189003 151.278503 C 96.636002 148.75647 98.686996 147.403503 100.623001 146.028992 Z"/>
    <path id="path37" fill="#8ee674" stroke="none" d="M 128.373001 179.257996 C 132.082504 179.157959 135.766495 179.239502 139.475006 179.358032 C 139.487 183.964966 140.757507 199.75354 138.957993 203.037964 C 138.177994 204.461487 137.015503 204.534485 135.592499 205.015503 C 131.608505 205.009521 127.8535 204.807983 123.905998 204.230957 C 123.882004 196.446045 122.983002 187.716003 124.1605 180.078491 C 125.333 179.10199 126.920998 179.302979 128.373001 179.257996 Z"/>
    <path id="path38" fill="#8ee674" stroke="none" d="M 66.246002 179.533997 C 71.223999 179.416504 76.221497 179.51001 81.202003 179.514526 C 81.519501 187.877991 81.837502 196.770508 80.879501 205.083984 C 75.994499 205.790527 70.927498 205.215515 66.046501 204.759033 C 65.984001 196.415527 65.551003 187.840515 66.246002 179.533997 Z"/>
    <path id="path39" fill="#8ee674" stroke="none" d="M 677.015015 177.841492 L 692.61499 178.060486 C 692.630005 186.261963 692.73999 194.476501 692.484985 202.674011 C 687.48999 203.463013 682.070007 203.015015 677.015015 202.941528 L 677.015015 177.841492 Z"/>
    <path id="path40" fill="#8ee674" stroke="none" d="M 736.315002 177.218018 C 741.554993 177.141968 746.789978 177.194458 752.025024 177.376465 C 752.059998 182.903992 751.984985 188.437988 751.955017 193.966003 L 745.099976 199.420044 C 742 201.869019 738.809998 204.119507 735.539978 206.336487 C 735.52002 202.36853 734.77002 180.028503 735.599976 177.985962 C 735.72998 177.661011 736.075012 177.473999 736.315002 177.218018 Z"/>
    <path id="path41" fill="#4da0d9" stroke="none" d="M 660.26001 164.094482 L 660.780029 164.179993 C 662.174988 165.977539 661.460022 189.592529 661.450012 193.474487 C 658.625 193.576538 655.809998 193.446533 652.98999 193.340515 L 651.844971 192.463013 C 649.789978 187.505005 651.070007 172.249512 651.14502 166.200989 L 660.26001 164.094482 Z"/>
    <path id="path42" fill="#4da0d9" stroke="none" d="M 46.738098 162.354492 C 47.676498 162.523987 47.232552 162.322021 48.0238 163.052979 C 48.478001 167.765015 49.189301 186.08551 48.1376 190.04248 C 47.833302 191.1875 47.188251 191.380005 46.251251 191.969482 C 44.572552 192.13147 43.57655 191.720459 42.0411 191.072021 C 41.19455 190.560486 40.252998 190.035034 39.558201 189.317993 C 36.594452 186.259033 37.943249 171.782959 37.971298 167.049011 C 40.754398 165.286011 43.807751 163.862 46.738098 162.354492 Z"/>
    <path id="path43" fill="#4da0d9" stroke="none" d="M 155.723007 168.000977 L 165.516006 168.036499 C 165.593002 176.635986 166.231506 185.768005 165.315002 194.321045 C 162.194504 194.866455 159.202499 194.963013 156.041 194.989014 C 155.296997 186.080505 155.610504 176.9375 155.723007 168.000977 Z"/>
    <path id="path44" fill="#4da0d9" stroke="none" d="M 765.690002 161.428955 C 769.130005 161.330505 772.594971 161.428955 776.039978 161.448486 L 776.070007 173.123535 L 771.640015 176.899536 C 769.755005 178.578979 767.76001 180.136475 765.794983 181.723999 C 765.655029 174.959961 765.61499 168.19397 765.690002 161.428955 Z"/>
    <path id="path45" fill="#4da0d9" stroke="none" d="M 736.065002 153.915527 C 740.89502 153.782471 745.705017 153.978516 750.530029 154.151489 L 750.530029 162.76001 L 735.98999 162.683472 L 736.065002 153.915527 Z"/>
    <path id="path46" fill="#4da0d9" stroke="none" d="M 677.10498 155.484497 C 681.869995 155.429993 686.640015 155.483032 691.405029 155.643005 C 691.484985 158.161011 691.375 160.679504 691.304993 163.196533 C 686.599976 163.536011 681.815002 163.356506 677.099976 163.343994 L 677.10498 155.484497 Z"/>
    <path id="path47" fill="#4da0d9" stroke="none" d="M 124.4935 156.99646 C 129.337006 156.938965 134.186493 156.99646 139.031006 157.00354 L 138.865005 163.869507 C 134.126999 164.176025 129.315506 164.005493 124.567001 163.995972 C 124.405502 161.670044 124.4785 159.327515 124.4935 156.99646 Z"/>
    <path id="path48" fill="#4da0d9" stroke="none" d="M 66.585999 157.137512 C 71.383003 156.990479 76.202003 157.116455 81.001503 157.151001 L 80.892998 164.047485 C 76.136002 164.235962 71.357498 164.184998 66.596497 164.218506 L 66.585999 157.137512 Z"/>
</svg>
